<svg width="107" height="107" viewBox="0 0 107 107" fill="none" xmlns="http://www.w3.org/2000/svg">
<path d="M74.4749 27.1402C72.4904 27.4538 70.5853 27.9621 68.7597 28.6653C65.5116 29.8874 62.6636 31.6501 60.2157 33.9533C57.7678 36.2095 55.8378 38.9358 54.4255 42.1321C53.0604 45.2814 52.3778 48.8068 52.3778 52.7082C52.3778 56.5625 53.0369 60.1114 54.3549 63.3547C55.673 66.598 57.5325 69.4183 59.9333 71.8155C62.3811 74.1658 65.2527 75.999 68.5479 77.3151C70.6116 78.1099 72.8044 78.6558 75.1266 78.9529C76.5971 79.141 76.377 78.7947 76.377 77.3854V67.3969C76.377 66.0272 76.3931 66.0209 75.1266 65.6122C74.2962 65.3442 73.5156 64.9913 72.7846 64.5533C70.9016 63.3782 69.4423 61.7801 68.4067 59.7589C67.371 57.6907 66.8532 55.3404 66.8532 52.7082C66.8532 50.0289 67.371 47.6787 68.4067 45.6575C69.4423 43.6363 70.9016 42.0616 72.7846 40.9335C73.5156 40.4773 74.2962 40.1097 75.1266 39.8306C76.3784 39.4098 76.377 39.4164 76.377 38.056V28.6915C76.377 26.8595 76.3166 26.8492 74.4749 27.1402Z" fill="#0891B2"/>
<path d="M83.2807 27.1402C85.2652 27.4538 87.1703 27.9621 88.9959 28.6653C92.244 29.8874 95.092 31.6501 97.5399 33.9533C99.9878 36.2095 101.918 38.9358 103.33 42.1321C104.695 45.2814 105.378 48.8068 105.378 52.7082C105.378 56.5625 104.719 60.1114 103.401 63.3547C102.083 66.598 100.223 69.4183 97.8223 71.8156C95.3745 74.1658 92.5029 75.999 89.2077 77.3151C87.1441 78.1099 84.9512 78.6558 82.6291 78.9529C81.1586 79.141 81.3786 78.7947 81.3786 77.3854V67.3969C81.3786 66.0272 81.3625 66.0209 82.6291 65.6122C83.4594 65.3442 84.24 64.9913 84.971 64.5533C86.854 63.3782 88.3133 61.7801 89.3489 59.7589C90.3846 57.6907 90.9024 55.3404 90.9024 52.7082C90.9024 50.0289 90.3846 47.6787 89.3489 45.6575C88.3133 43.6363 86.854 42.0616 84.971 40.9335C84.24 40.4773 83.4594 40.1096 82.6291 39.8306C81.3773 39.4098 81.3786 39.4164 81.3786 38.056V28.6915C81.3786 26.8595 81.439 26.8492 83.2807 27.1402Z" fill="#0891B2"/>
<path fill-rule="evenodd" clip-rule="evenodd" d="M18.8859 45.9348C17.6612 47.8659 17.0489 50.221 17.0489 53C17.0489 55.779 17.6612 58.1576 18.8859 60.1359C20.1576 62.067 21.8297 63.5507 23.9022 64.5869C25.9746 65.5761 28.2591 66.0707 30.7554 66.0707C33.1105 66.0707 35.1594 65.7645 36.9022 65.1522C38.6449 64.5399 40.1993 63.7627 41.5652 62.8206C42.9312 61.8315 44.1322 60.7953 45.1685 59.712V74.125C43.2373 75.538 41.0942 76.7156 38.7391 77.6576C36.4311 78.5525 33.4638 79 29.8369 79C25.7391 79 21.971 78.3877 18.5326 77.163C15.0942 75.9384 12.1504 74.1721 9.70109 71.8641C7.25181 69.5562 5.3442 66.8243 3.97826 63.6685C2.65942 60.4656 2 56.9094 2 53C2 49.0906 2.65942 45.558 3.97826 42.4022C5.3442 39.1993 7.25181 36.4438 9.70109 34.1359C12.1504 31.8279 15.0942 30.0616 18.5326 28.837C21.971 27.6123 25.7391 27 29.8369 27C33.4638 27 36.4311 27.4475 38.7391 28.3424C41.0942 29.2373 43.2373 30.4149 45.1685 31.875V46.288C44.1322 45.2047 42.9312 44.192 41.5652 43.25C40.1993 42.2609 38.6449 41.4601 36.9022 40.8478C35.1594 40.2355 33.1105 39.9293 30.7554 39.9293C28.2591 39.9293 25.9746 40.4475 23.9022 41.4837C21.8297 42.4728 20.1576 43.9565 18.8859 45.9348Z" fill="#0891B2"/>
</svg>
