<svg width="170" height="38" viewBox="0 0 170 38" fill="none" xmlns="http://www.w3.org/2000/svg">
<g clip-path="url(#clip0_442_12)">
<path d="M53.128 0.167404C51.7051 0.396558 50.3392 0.768043 49.0303 1.28186C46.7015 2.17495 44.6595 3.46306 42.9044 5.14619C41.1493 6.79497 39.7655 8.78724 38.753 11.123C37.7742 13.4244 37.2848 16.0007 37.2848 18.8517C37.2848 21.6683 37.7573 24.2617 38.7024 26.6319C39.6474 29.002 40.9806 31.0629 42.7019 32.8148C44.457 34.5322 46.5158 35.8719 48.8784 36.8337C50.358 37.4145 51.9303 37.8134 53.5952 38.0305C54.6495 38.168 54.4917 37.9149 54.4917 36.8851V29.5858C54.4917 28.5848 54.5033 28.5802 53.5952 28.2815C52.9999 28.0857 52.4402 27.8278 51.9161 27.5078C50.566 26.649 49.5197 25.4811 48.7772 24.0041C48.0347 22.4927 47.6634 20.7752 47.6634 18.8517C47.6634 16.8937 48.0347 15.1763 48.7772 13.6992C49.5197 12.2222 50.566 11.0715 51.9161 10.2471C52.4402 9.91373 52.9999 9.64507 53.5952 9.44112C54.4927 9.13363 54.4917 9.1385 54.4917 8.14432V1.30104C54.4917 -0.0377377 54.4484 -0.0452501 53.128 0.167404Z" fill="#0891B2"/>
<path d="M59.4416 0.167404C60.8644 0.396558 62.2303 0.768043 63.5393 1.28186C65.8681 2.17495 67.9101 3.46306 69.6652 5.14619C71.4202 6.79497 72.8041 8.78724 73.8166 11.123C74.7954 13.4244 75.2848 16.0007 75.2848 18.8517C75.2848 21.6683 74.8123 24.2617 73.8672 26.6319C72.9222 29.002 71.589 31.063 69.8677 32.8148C68.1126 34.5323 66.0537 35.8719 63.6911 36.8337C62.2115 37.4145 60.6393 37.8134 58.9744 38.0305C57.92 38.168 58.0778 37.9149 58.0778 36.8851V29.5858C58.0778 28.5848 58.0663 28.5802 58.9744 28.2815C59.5697 28.0857 60.1294 27.8278 60.6535 27.5078C62.0036 26.649 63.0499 25.4811 63.7924 24.0041C64.5349 22.4927 64.9062 20.7752 64.9062 18.8517C64.9062 16.8937 64.5349 15.1763 63.7924 13.6992C63.0499 12.2222 62.0036 11.0715 60.6535 10.2471C60.1294 9.91373 59.5697 9.64507 58.9744 9.44112C58.0768 9.13363 58.0778 9.1385 58.0778 8.14432V1.30104C58.0778 -0.0377384 58.1211 -0.0452501 59.4416 0.167404Z" fill="#0891B2"/>
<path fill-rule="evenodd" clip-rule="evenodd" d="M12.1159 13.586C11.2372 14.9717 10.7979 16.6615 10.7979 18.6555C10.7979 20.6494 11.2372 22.3561 12.1159 23.7756C13.0284 25.1612 14.2282 26.2258 15.7152 26.9693C17.2022 27.679 18.8413 28.0339 20.6325 28.0339C22.3223 28.0339 23.7925 27.8142 25.0429 27.3749C26.2934 26.9355 27.4087 26.3779 28.3887 25.702C29.3688 24.9922 30.2306 24.2487 30.9741 23.4714V33.813C29.5885 34.8269 28.0508 35.6718 26.361 36.3477C24.705 36.9899 22.5758 37.3109 19.9735 37.3109C17.0332 37.3109 14.3296 36.8716 11.8624 35.9929C9.39532 35.1142 7.28307 33.8468 5.52567 32.1908C3.76827 30.5348 2.39952 28.5746 1.41943 26.3103C0.473142 24.0121 0 21.4605 0 18.6555C0 15.8504 0.473142 13.3157 1.41943 11.0513C2.39952 8.7532 3.76827 6.77612 5.52567 5.12011C7.28307 3.4641 9.39532 2.19675 11.8624 1.31805C14.3296 0.439351 17.0332 0 19.9735 0C22.5758 0 24.705 0.321063 26.361 0.963189C28.0508 1.60532 29.5885 2.45022 30.9741 3.4979V13.8395C30.2306 13.0622 29.3688 12.3356 28.3887 11.6597C27.4087 10.9499 26.2934 10.3754 25.0429 9.93606C23.7925 9.49671 22.3223 9.27703 20.6325 9.27703C18.8413 9.27703 17.2022 9.64879 15.7152 10.3923C14.2282 11.102 13.0284 12.1666 12.1159 13.586ZM86.8302 0.578944L94.5864 19.8934L102.393 0.578944H113.952L94.5864 38.4475L75.2719 0.578944H86.8302ZM117.441 0.578944V36.0649H141.622V27.7003H127.276V0.578944H117.441ZM169.949 36.0649H154.792H152.054H145.363V0.578944H152.054H154.792H169.949V8.53793H154.792V13.7594H168.935V21.4649H154.792V28.1059H169.949V36.0649Z" fill="#334155"/>
</g>
<defs>
<clipPath id="clip0_442_12">
<rect width="170" height="38" fill="white"/>
</clipPath>
</defs>
</svg>
